<svg width="24" height="18" viewBox="0 0 24 18" fill="none" xmlns="http://www.w3.org/2000/svg">
<path d="M13.7958 16.7944L12.6066 17.7094C12.1031 18.0969 11.2889 18.0969 10.7908 17.7094L0.377636 9.70071C-0.125879 9.31326 -0.125879 8.68674 0.377636 8.30341L10.7908 0.290588C11.2943 -0.0968628 12.1085 -0.0968628 12.6066 0.290588L13.7958 1.20563C14.3047 1.59721 14.2939 2.23609 13.7744 2.61942L7.31972 7.35127H22.7144C23.4268 7.35127 24 7.79231 24 8.34051V9.65949C24 10.2077 23.4268 10.6487 22.7144 10.6487H7.31972L13.7744 15.3806C14.2993 15.7639 14.31 16.4028 13.7958 16.7944Z" fill="#121212"/>
</svg>
