<svg width="20" height="20" viewBox="0 0 20 20" fill="none" xmlns="http://www.w3.org/2000/svg">
<path d="M1.25 18.5715C1.25 19.3616 1.80859 20 2.5 20H17.5C18.1914 20 18.75 19.3616 18.75 18.5715V5.71429H1.25V18.5715ZM7.5 9.10716C7.5 8.81251 7.71094 8.57144 7.96875 8.57144H12.0312C12.2891 8.57144 12.5 8.81251 12.5 9.10716V9.4643C12.5 9.75894 12.2891 10 12.0312 10H7.96875C7.71094 10 7.5 9.75894 7.5 9.4643V9.10716ZM18.75 0H1.25C0.558594 0 0 0.638394 0 1.42857V3.57143C0 3.96429 0.28125 4.28572 0.625 4.28572H19.375C19.7188 4.28572 20 3.96429 20 3.57143V1.42857C20 0.638394 19.4414 0 18.75 0Z" fill="#121212" fill-opacity="0.87"/>
</svg>
