<svg width="85" height="206" viewBox="0 0 85 206" fill="none" xmlns="http://www.w3.org/2000/svg">
<path d="M-32.8781 0.147339C-39.7689 0.637375 -47.8048 2.63251 -54.2938 5.5027C-65.7249 10.508 -72.7363 17.8235 -74.2631 26.3991C-74.7453 29.1293 -74.7654 30.5994 -74.3636 33.3296C-73.4193 39.63 -69.763 46.5955 -63.716 53.701C-54.3139 64.7267 -35.751 78.0976 -12.7883 90.3484C-6.17876 93.8837 1.13393 97.5589 1.21428 97.4189C1.25447 97.3489 0.310242 96.7889 -0.875061 96.1238C-8.36855 92.1336 -21.9693 83.733 -29.2017 78.6927C-46.7602 66.4768 -57.91 55.5211 -63.937 44.6703C-68.196 36.9698 -69.3612 30.1444 -67.533 23.5989C-63.957 10.9281 -47.5035 1.44243 -27.253 0.462357C-23.4359 0.252335 -23.0944 0.462357 -26.4494 0.882385C-27.6347 1.0224 -24.6413 1.09239 -19.6791 0.987396C-3.58717 0.742371 9.51137 2.70251 23.6345 7.42783C35.9496 11.5931 45.5525 16.8435 54.0103 24.054C64.3967 32.9096 70.1022 42.6752 71.8098 54.506C72.1715 56.9912 72.2317 58.1463 72.1514 61.8565C72.071 65.7068 71.9706 66.6868 71.3076 70.0821C70.9058 72.1822 70.1022 75.3674 69.5397 77.1526C65.7226 89.2284 57.3452 102.669 45.3717 116.005L42.4787 119.225L41.6149 118.7C40.068 117.72 33.4785 114.395 24.9805 110.3C16.8843 106.345 12.6454 104.139 8.32608 101.584C7.16086 100.919 6.19655 100.429 6.15637 100.499C5.95547 100.814 14.2526 105.644 26.1859 112.085C33.3981 116.005 40.3693 120.1 40.7108 120.661C41.0724 121.256 28.3355 133.191 19.8375 140.227C0.591507 156.153 -20.7439 170.714 -48.9098 187.2L-58.4323 192.73L-64.3789 190.455C-88.6273 181.215 -110.565 171.029 -125.291 162.208C-127.22 161.053 -128.867 160.003 -128.948 159.898C-129.128 159.618 -122.077 157.098 -109.722 153.038C-98.9736 149.537 -98.3307 149.292 -98.4311 149.117C-98.4914 149.047 -100.219 149.537 -102.308 150.203C-106.427 151.533 -110.123 152.653 -118.561 155.138C-121.534 156.013 -125.492 157.203 -127.34 157.833L-130.715 158.918L-133.468 157.063C-152.714 144.077 -161.292 132.351 -159.343 121.606C-156.832 107.64 -134.593 96.1938 -100.782 91.4335C-91.7613 90.1734 -85.5335 89.7534 -74.6046 89.7184C-68.5576 89.7184 -63.8164 89.5784 -64.0575 89.4384C-64.8008 89.0884 -87.8036 89.1234 -93.0471 89.5084C-111.992 90.8735 -128.586 94.0587 -142.568 98.959C-158.962 104.734 -169.027 112.4 -171.458 121.011C-171.9 122.551 -172 123.426 -172 125.386C-171.98 128.921 -171.297 131.161 -168.987 135.186C-164.587 142.887 -156.109 150.308 -142.167 158.708C-139.816 160.108 -137.827 161.333 -137.787 161.438C-137.707 161.578 -138.008 161.718 -140.499 162.838C-144.176 164.448 -148.053 167.214 -149.379 169.174C-150.062 170.154 -150.604 171.729 -150.604 172.639C-150.604 174.774 -148.877 177.609 -146.144 180.025C-140.539 184.96 -128.948 190.56 -111.228 196.931C-102.268 200.151 -84.4687 205.856 -84.0669 205.646C-83.9665 205.576 -85.433 205.016 -87.3617 204.386C-93.027 202.531 -101.324 199.521 -106.969 197.281C-130.816 187.9 -142.468 180.62 -144.276 174.004C-145.24 170.434 -142.91 166.969 -137.365 163.713L-135.477 162.593L-132.142 164.343C-116.11 172.884 -92.7457 182.58 -67.2317 191.365C-63.4146 192.66 -60.4413 193.815 -60.602 193.92C-60.9235 194.13 -66.6089 197.281 -71.5108 199.941C-73.1582 200.851 -74.4439 201.656 -74.3836 201.761C-74.3234 201.866 -73.8814 201.726 -73.4193 201.411C-72.9372 201.096 -69.984 199.591 -66.8299 198.016C-63.6758 196.476 -60.6824 194.971 -60.1601 194.656C-59.256 194.13 -59.0752 194.165 -54.9367 195.531C-40.9542 200.116 -21.3064 206.171 -20.985 205.996C-20.8644 205.926 -23.1145 205.121 -25.9672 204.176C-34.646 201.341 -53.0081 194.901 -56.4836 193.465C-57.247 193.15 -57.7895 193.465 -49.6531 189.265C-40.1305 184.33 -32.1549 179.955 -22.6323 174.494C4.08713 159.163 26.3466 143.832 42.7198 129.516L47.3806 125.456L48.7869 126.786C52.5036 130.286 55.0349 134.066 56.0394 137.672C56.5215 139.352 56.622 140.192 56.622 142.222C56.622 144.357 56.5215 145.022 55.8385 147.437C52.3027 159.863 35.166 175.089 4.38847 193.08C1.1942 194.971 -3.12511 197.421 -5.19437 198.541C-7.26361 199.661 -8.93106 200.641 -8.89088 200.711C-8.81053 200.886 1.07365 195.916 7.1006 192.695C25.3823 182.965 37.6572 175.019 47.3806 166.689C57.9881 157.588 62.8699 150.027 62.8498 142.712C62.8297 141.137 62.7092 139.912 62.4078 138.757C61.8252 136.587 60.0774 133.401 58.2291 131.161C56.7425 129.376 52.4232 125.491 50.6553 124.336C50.1129 123.986 49.691 123.636 49.691 123.496C49.691 123.391 50.6151 122.411 51.7401 121.361C58.9524 114.57 67.7316 104.419 72.292 97.5589C74.3813 94.4437 77.9975 88.0733 79.2833 85.3081C84.5267 73.9673 86.1339 63.6416 84.2253 53.666C82.2365 43.2703 76.6716 34.1696 67.1691 25.8391C50.9968 11.6281 24.7997 2.07246 -2.74341 0.287338C-7.20334 -0.0276794 -29.282 -0.0976868 -32.8781 0.147339Z" fill="#121212" fill-opacity="0.16"/>
</svg>
