<svg width="215" height="34" viewBox="0 0 215 34" fill="none" xmlns="http://www.w3.org/2000/svg">
<g filter="url(#Xfilter0_i)">
<path d="M12.725 33H21.305V18.414L33.395 0.824998H23.06L17.015 9.756L10.97 0.824998H0.635L12.725 18.414V33ZM40.0801 33.624C42.3681 33.624 44.4286 33.1755 46.2616 32.2785C48.1076 31.3685 49.5636 30.1205 50.6296 28.5345C51.7086 26.9355 52.2481 25.096 52.2481 23.016C52.2481 20.936 51.7086 19.103 50.6296 17.517C49.5636 15.918 48.1076 14.67 46.2616 13.773C44.4286 12.863 42.3681 12.408 40.0801 12.408C37.7921 12.408 35.7251 12.863 33.8791 13.773C32.0461 14.67 30.5901 15.918 29.5111 17.517C28.4451 19.103 27.9121 20.936 27.9121 23.016C27.9121 25.096 28.4451 26.9355 29.5111 28.5345C30.5901 30.1205 32.0461 31.3685 33.8791 32.2785C35.7251 33.1755 37.7921 33.624 40.0801 33.624ZM40.0801 26.76C39.0921 26.76 38.2341 26.4155 37.5061 25.7265C36.7781 25.0245 36.4141 24.121 36.4141 23.016C36.4141 21.898 36.7781 20.9945 37.5061 20.3055C38.2341 19.6165 39.0921 19.272 40.0801 19.272C41.0811 19.272 41.9391 19.6165 42.6541 20.3055C43.3821 20.9945 43.7461 21.898 43.7461 23.016C43.7461 24.121 43.3821 25.0245 42.6541 25.7265C41.9391 26.4155 41.0811 26.76 40.0801 26.76ZM65.7537 33.624C69.8227 33.624 72.7607 32.8765 74.5677 31.3815C76.3877 29.8865 77.2977 27.475 77.2977 24.147V13.032H69.1857V22.119C69.1857 23.952 68.9322 25.239 68.4252 25.98C67.9182 26.708 67.0277 27.072 65.7537 27.072C64.4927 27.072 63.6022 26.708 63.0822 25.98C62.5752 25.239 62.3217 23.952 62.3217 22.119V13.032H54.2097V24.147C54.2097 27.475 55.1132 29.8865 56.9202 31.3815C58.7402 32.8765 61.6847 33.624 65.7537 33.624ZM81.2126 33H89.3246V23.211C89.3246 22.548 89.5131 21.9305 89.8901 21.3585C90.2671 20.7865 90.7611 20.325 91.3721 19.974C91.9961 19.61 92.6526 19.428 93.3416 19.428C93.8876 19.428 94.4856 19.5385 95.1356 19.7595C95.7986 19.9805 96.3706 20.273 96.8516 20.637L100.245 13.812C99.6856 13.396 98.9771 13.058 98.1191 12.798C97.2611 12.538 96.4486 12.408 95.6816 12.408C94.4986 12.408 93.3481 12.7135 92.2301 13.3245C91.1251 13.9225 90.1566 14.761 89.3246 15.84V13.032H81.2126V33ZM118.349 33.624C120.949 33.624 123.198 33.2145 125.096 32.3955C126.994 31.5765 128.456 30.3935 129.483 28.8465C130.523 27.2995 131.043 25.447 131.043 23.289C131.043 21.482 130.673 19.9805 129.932 18.7845C129.191 17.5755 128.073 16.5095 126.578 15.5865C125.096 14.6505 123.23 13.695 120.981 12.72C119.616 12.122 118.667 11.6735 118.134 11.3745C117.614 11.0625 117.354 10.614 117.354 10.029C117.354 9.379 117.627 8.885 118.173 8.547C118.719 8.209 119.467 8.04 120.416 8.04C121.404 8.04 122.476 8.209 123.633 8.547C124.79 8.885 125.882 9.34 126.909 9.912L130.302 3.009C129.431 2.463 128.417 1.982 127.26 1.566C126.103 1.15 124.907 0.824999 123.672 0.590999C122.45 0.356999 121.293 0.239999 120.201 0.239999C118.498 0.239999 116.951 0.519499 115.56 1.0785C114.182 1.6375 112.999 2.3915 112.011 3.3405C111.023 4.2895 110.263 5.362 109.73 6.558C109.197 7.741 108.93 8.9695 108.93 10.2435C108.93 12.0765 109.476 13.682 110.568 15.06C111.66 16.438 113.129 17.569 114.975 18.453C116.6 19.22 117.894 19.857 118.856 20.364C119.831 20.858 120.533 21.339 120.962 21.807C121.391 22.262 121.605 22.8145 121.605 23.4645C121.605 24.9335 120.604 25.668 118.602 25.668C117.666 25.668 116.691 25.525 115.677 25.239C114.676 24.94 113.701 24.563 112.752 24.108C111.803 23.64 110.945 23.146 110.178 22.626L105.927 29.919C106.655 30.504 107.637 31.0825 108.872 31.6545C110.12 32.2265 111.55 32.6945 113.162 33.0585C114.774 33.4355 116.503 33.624 118.349 33.624ZM142.055 33.624C143.004 33.624 143.979 33.5005 144.98 33.2535C145.981 33.0195 146.897 32.688 147.729 32.259L145.701 25.746C145.142 26.162 144.603 26.37 144.083 26.37C143.238 26.37 142.815 25.85 142.815 24.81V19.194H146.793V13.032H142.815V5.544H134.703V13.032H131.583V19.194H134.703V25.434C134.703 28.008 135.347 30.0165 136.634 31.4595C137.934 32.9025 139.741 33.624 142.055 33.624ZM160.771 33.624C163.059 33.624 165.12 33.1755 166.953 32.2785C168.799 31.3685 170.255 30.1205 171.321 28.5345C172.4 26.9355 172.939 25.096 172.939 23.016C172.939 20.936 172.4 19.103 171.321 17.517C170.255 15.918 168.799 14.67 166.953 13.773C165.12 12.863 163.059 12.408 160.771 12.408C158.483 12.408 156.416 12.863 154.57 13.773C152.737 14.67 151.281 15.918 150.202 17.517C149.136 19.103 148.603 20.936 148.603 23.016C148.603 25.096 149.136 26.9355 150.202 28.5345C151.281 30.1205 152.737 31.3685 154.57 32.2785C156.416 33.1755 158.483 33.624 160.771 33.624ZM160.771 26.76C159.783 26.76 158.925 26.4155 158.197 25.7265C157.469 25.0245 157.105 24.121 157.105 23.016C157.105 21.898 157.469 20.9945 158.197 20.3055C158.925 19.6165 159.783 19.272 160.771 19.272C161.772 19.272 162.63 19.6165 163.345 20.3055C164.073 20.9945 164.437 21.898 164.437 23.016C164.437 24.121 164.073 25.0245 163.345 25.7265C162.63 26.4155 161.772 26.76 160.771 26.76ZM175.39 33H183.502V23.211C183.502 22.548 183.69 21.9305 184.067 21.3585C184.444 20.7865 184.938 20.325 185.549 19.974C186.173 19.61 186.83 19.428 187.519 19.428C188.065 19.428 188.663 19.5385 189.313 19.7595C189.976 19.9805 190.548 20.273 191.029 20.637L194.422 13.812C193.863 13.396 193.154 13.058 192.296 12.798C191.438 12.538 190.626 12.408 189.859 12.408C188.676 12.408 187.525 12.7135 186.407 13.3245C185.302 13.9225 184.334 14.761 183.502 15.84V13.032H175.39V33ZM204.284 33.624C206.468 33.624 208.444 33.156 210.212 32.22C211.993 31.271 213.352 29.971 214.288 28.32L208.477 25.434C207.775 26.11 207.157 26.578 206.624 26.838C206.104 27.098 205.48 27.228 204.752 27.228C203.569 27.228 202.646 26.955 201.983 26.409C201.32 25.863 200.989 25.109 200.989 24.147H214.522C214.561 23.64 214.58 23.315 214.58 23.172C214.593 23.016 214.6 22.8535 214.6 22.6845C214.6 20.6435 214.158 18.856 213.274 17.322C212.39 15.775 211.161 14.5725 209.588 13.7145C208.028 12.8435 206.208 12.408 204.128 12.408C201.957 12.408 200.001 12.876 198.259 13.812C196.517 14.735 195.139 15.996 194.125 17.595C193.111 19.181 192.604 20.975 192.604 22.977C192.604 24.992 193.117 26.8055 194.144 28.4175C195.171 30.0165 196.562 31.284 198.317 32.22C200.085 33.156 202.074 33.624 204.284 33.624ZM201.223 20.325C201.249 18.765 202.146 17.985 203.914 17.985C205.513 17.985 206.436 18.765 206.683 20.325H201.223Z" fill="#FAFAFA" fill-opacity="0.87"/>
</g>
<defs>
<filter id="Xfilter0_i" x="0.634766" y="0.23999" width="213.965" height="35.384" filterUnits="userSpaceOnUse" color-interpolation-filters="sRGB">
<feFlood flood-opacity="0" result="BackgroundImageFix"/>
<feBlend mode="normal" in="SourceGraphic" in2="BackgroundImageFix" result="shape"/>
<feColorMatrix in="SourceAlpha" type="matrix" values="0 0 0 0 0 0 0 0 0 0 0 0 0 0 0 0 0 0 127 0" result="hardAlpha"/>
<feOffset dy="2"/>
<feGaussianBlur stdDeviation="2"/>
<feComposite in2="hardAlpha" operator="arithmetic" k2="-1" k3="1"/>
<feColorMatrix type="matrix" values="0 0 0 0 0.229167 0 0 0 0 0.229167 0 0 0 0 0.229167 0 0 0 0.7 0"/>
<feBlend mode="normal" in2="shape" result="effect1_innerShadow"/>
</filter>
</defs>
</svg>
