<svg width="20" height="16" viewBox="0 0 20 16" fill="none" xmlns="http://www.w3.org/2000/svg">
<path d="M19.7232 8.66354L13.0562 15.2249C12.4609 15.8108 11.4291 15.4007 11.4291 14.561V10.8116H6.03205C5.50424 10.8116 5.07962 10.3937 5.07962 9.87427V6.1249C5.07962 5.60545 5.50424 5.18755 6.03205 5.18755H11.4291V1.43818C11.4291 0.602376 12.457 0.188383 13.0562 0.774223L19.7232 7.33563C20.0923 7.70276 20.0923 8.29641 19.7232 8.66354ZM7.61943 15.0297V13.4674C7.61943 13.2097 7.40513 12.9988 7.14321 12.9988H3.80971C3.1073 12.9988 2.53981 12.4403 2.53981 11.749V4.25021C2.53981 3.55892 3.1073 3.00042 3.80971 3.00042H7.14321C7.40513 3.00042 7.61943 2.78951 7.61943 2.53174V0.969503C7.61943 0.711733 7.40513 0.500831 7.14321 0.500831H3.80971C1.70643 0.500831 0 2.18024 0 4.25021V11.749C0 13.8189 1.70643 15.4983 3.80971 15.4983H7.14321C7.40513 15.4983 7.61943 15.2874 7.61943 15.0297Z" fill="#121212" fill-opacity="0.87"/>
</svg>
