<svg width="20" height="20" viewBox="0 0 20 20" fill="none" xmlns="http://www.w3.org/2000/svg">
<path d="M15.75 13.7497H4.2625C4.125 13.7497 4.0125 13.8903 4.0125 14.0622L4.00938 15.9373C4.00938 16.1092 4.12188 16.2498 4.25938 16.2498H15.75C15.8875 16.2498 16 16.1092 16 15.9373V14.0622C16 13.8903 15.8875 13.7497 15.75 13.7497ZM15.75 17.4999H4.25313C4.11563 17.4999 4.00313 17.6405 4.00313 17.8124L4 19.6875C4 19.8594 4.1125 20 4.25 20H15.75C15.8875 20 16 19.8594 16 19.6875V17.8124C16 17.6405 15.8875 17.4999 15.75 17.4999ZM15.75 9.99953H4.26875C4.13125 9.99953 4.01875 10.1402 4.01875 10.312L4.01562 12.1871C4.01562 12.359 4.12813 12.4997 4.26562 12.4997H15.75C15.8875 12.4997 16 12.359 16 12.1871V10.312C16 10.1402 15.8875 9.99953 15.75 9.99953ZM19.0781 4.56957L10.575 0.143564C10.3922 0.0487858 10.1963 0 9.99844 0C9.80057 0 9.60464 0.0487858 9.42188 0.143564L0.921875 4.56957C0.365625 4.86255 0 5.54227 0 6.30012V19.6875C0 19.8594 0.1125 20 0.25 20H2.75C2.8875 20 3 19.8594 3 19.6875V9.99953C3 9.31199 3.45625 8.74947 4.01875 8.74947H15.9812C16.5438 8.74947 17 9.31199 17 9.99953V19.6875C17 19.8594 17.1125 20 17.25 20H19.75C19.8875 20 20 19.8594 20 19.6875V6.30012C20 5.54227 19.6344 4.86255 19.0781 4.56957Z" fill="#FAFAFA"/>
</svg>
