<svg width="20" height="14" viewBox="0 0 20 14" fill="none" xmlns="http://www.w3.org/2000/svg">
<path d="M10.8026 0.937646L11.5954 0.225944C11.9311 -0.0754067 12.4739 -0.0754067 12.806 0.225944L19.7482 6.45493C20.0839 6.75629 20.0839 7.24358 19.7482 7.54172L12.806 13.7739C12.4703 14.0753 11.9275 14.0753 11.5954 13.7739L10.8026 13.0622C10.4634 12.7577 10.4705 12.2608 10.8169 11.9626L15.1201 8.28228L0.799929 8.1666C0.324971 8.1666 0 8.00964 0 7.58326V6.4166C0 5.99022 0.324971 5.83326 0.799929 5.83326L15.1201 5.71759L10.8169 2.03726C10.4669 1.73911 10.4598 1.2422 10.8026 0.937646Z" fill="#121212"/>
</svg>
